<?xml version="1.0" encoding="UTF-8" standalone="no"?><!-- Generator: Gravit.io --><svg xmlns="http://www.w3.org/2000/svg" xmlns:xlink="http://www.w3.org/1999/xlink" style="isolation:isolate" viewBox="0 0 2200 1000" width="2200pt" height="1000pt"><defs><clipPath id="_clipPath_FWgki06SlndFerX9UxoG8DyLtmL6NTVn"><rect width="2200" height="1000"/></clipPath></defs><g clip-path="url(#_clipPath_FWgki06SlndFerX9UxoG8DyLtmL6NTVn)"><g><g><g><g><circle vector-effect="non-scaling-stroke" cx="295.81249999999983" cy="759.1875" r="67.9374999999997" fill="rgb(232,190,40)"/><circle vector-effect="non-scaling-stroke" cx="838.1249999999994" cy="826.25" r="48" fill="rgb(232,190,40)"/><path d=" M 86.875 761.75 C 86.875 646.952 180.077 553.75 294.875 553.75 C 409.673 553.75 502.875 646.952 502.875 761.75 C 502.875 876.548 409.673 969.75 294.875 969.75 C 180.077 969.75 86.875 876.548 86.875 761.75 Z  M 180.875 762.25 C 180.875 698.78 232.405 647.25 295.875 647.25 C 359.345 647.25 410.875 698.78 410.875 762.25 C 410.875 825.72 359.345 877.25 295.875 877.25 C 232.405 877.25 180.875 825.72 180.875 762.25 Z " fill-rule="evenodd" fill="rgb(75,199,20)"/><path d=" M 694.875 829.75 C 694.875 752.482 757.607 689.75 834.875 689.75 C 912.143 689.75 974.875 752.482 974.875 829.75 C 974.875 907.018 912.143 969.75 834.875 969.75 C 757.607 969.75 694.875 907.018 694.875 829.75 Z  M 758.144 830.087 C 758.144 787.366 792.828 752.683 835.548 752.683 C 878.268 752.683 912.952 787.366 912.952 830.087 C 912.952 872.807 878.268 907.49 835.548 907.49 C 792.828 907.49 758.144 872.807 758.144 830.087 Z " fill-rule="evenodd" fill="rgb(75,199,20)"/></g><path d=" M 754.375 30.25 L 755.875 30.75 C 755.497 47.176 757.917 64.952 768.375 78.25 L 768.375 78.25 L 769.875 78.75 Q 773.083 98.542 785.875 108.75 Q 799.424 125.201 796.875 157.75 Q 791.3 183.675 775.375 199.25 L 773.875 199.75 L 759.375 215.25 L 756.875 216.75 L 756.375 218.25 L 752.375 220.25 L 751.875 217.75 C 757.093 206.097 759.743 193.422 760.875 180.75 L 760.875 180.75 L 759.875 177.75 C 763.968 174.68 761.438 168.707 760.875 164.75 C 759.511 155.154 758.891 146.086 754.375 137.25 L 754.375 137.25 L 752.875 137.75 Q 757.281 191.156 738.375 221.25 Q 733.625 222 732.875 218.75 L 730.375 215.25 L 725.875 211.75 L 725.375 210.25 L 720.875 206.75 C 704.455 192.032 697.105 169.996 695.436 148.501 C 692.816 114.739 704.02 78.452 728.375 54.25 L 728.375 54.25 L 729.875 53.75 L 732.375 49.25 L 735.875 47.75 C 731.925 44.729 737.931 42.158 740.375 41.25 L 740.375 41.25 L 741.875 41.75 L 746.375 36.25 L 754.375 30.25 Z " fill="rgb(232,190,40)"/><path d=" M 618.375 141.25 L 620.375 145.25 L 621.875 145.75 C 623.75 151.85 627.221 157.403 632.375 161.25 L 632.375 161.25 L 633.875 161.75 L 638.375 167.25 L 639.875 167.75 L 640.375 169.25 Q 674.841 187.284 701.875 212.75 Q 722.301 228.824 717.875 269.75 Q 714.506 293.881 704.375 311.25 Q 704.458 301.167 699.875 295.75 L 699.875 293.75 C 695.647 271.248 685.558 249.763 667.375 235.25 L 667.375 235.25 L 665.875 235.75 L 666.375 237.25 L 667.875 237.75 C 684.426 260.296 691.591 288.24 693.875 315.75 L 693.875 315.75 L 693.375 318.25 L 691.375 319.25 L 689.375 319.25 C 669.14 314.522 649.769 305.486 634.875 290.75 L 634.875 290.75 L 629.375 284.25 L 627.875 283.75 Q 601.82 255.805 601.875 201.75 Q 603.81 168.685 615.875 145.75 L 615.375 144.25 L 616.875 144.75 L 618.375 141.25 Z " fill="rgb(232,190,40)"/><path d=" M 865.375 184.25 C 874.609 183.082 884.547 182.847 893.375 186.25 L 893.375 186.25 L 895.375 186.25 L 903.875 187.75 L 903.375 190.25 L 901.875 190.75 L 900.375 193.25 L 895.875 196.75 L 887.375 209.25 L 885.875 209.75 L 878.875 224.75 Q 881.375 226.25 877.875 227.75 Q 870.575 263.95 853.375 290.25 L 851.875 290.75 L 847.375 297.25 L 837.875 303.75 L 837.375 305.25 C 817.224 317.192 791.997 317.596 769.375 315.25 L 769.375 315.25 L 760.875 312.75 L 765.875 309.75 L 766.375 308.25 L 768.375 308.25 Q 796.919 297.794 813.875 275.75 Q 821.133 268.508 824.875 257.75 L 823.375 257.25 L 816.375 266.25 C 814.408 263.408 812.638 266.8 811.875 268.75 L 811.875 268.75 L 809.375 272.25 L 805.875 273.75 L 804.375 276.25 C 790.142 291.38 770.548 299.651 750.375 303.25 L 750.375 303.25 L 749.875 300.75 C 749.631 267.506 757.96 231.646 787.375 212.25 L 787.375 212.25 L 789.875 210.75 L 790.375 209.25 C 811.353 192.064 838.824 185.638 865.375 184.25 L 865.375 184.25 Z " fill="rgb(232,190,40)"/><path d=" M 212.375 308.25 L 562.875 308.75 L 562.375 352.25 L 545.375 352.25 C 532.904 349.132 538.681 362.246 539.814 371.436 C 544.686 410.988 550.798 450.323 559.375 489.25 L 559.375 489.25 L 699.875 488.75 L 699.875 404.75 L 699.875 383.75 C 699.103 380.854 698.146 376.095 701.375 374.25 L 701.375 374.25 L 703.375 375.25 L 706.375 374.25 L 709.375 375.25 L 712.375 374.25 L 714.375 375.25 L 717.875 373.75 L 717.875 371.75 L 718.375 328.25 L 734.375 328.25 C 736.483 327.748 739.762 327.301 740.875 329.75 L 740.875 329.75 L 740.875 362.75 C 739.837 366.429 738.385 372.668 742.375 375.25 L 742.375 375.25 L 757.875 375.75 L 758.375 489.25 L 903.875 489.75 C 906.469 518.349 906.053 548.254 896.875 575.75 L 896.875 575.75 L 882.875 645.75 Q 881.738 664.112 876.375 678.25 Q 855.125 671 824.375 673.25 Q 759.518 682.893 725.875 723.75 L 725.375 725.25 L 723.875 725.75 C 713.94 737.713 705.791 751.098 699.375 765.25 L 699.375 765.25 L 561.375 765.25 L 527.375 765.25 C 523.429 766.378 516.704 767.993 513.875 763.75 L 513.875 763.75 L 514.875 761.75 L 513.875 759.75 Q 517.125 757.5 514.875 749.75 Q 508.279 662.346 462.375 614.25 L 459.875 612.75 L 452.375 603.25 L 450.875 602.75 L 448.375 599.25 L 446.875 598.75 L 445.375 596.25 L 438.875 591.75 L 437.375 589.25 Q 385.955 537.67 282.375 538.25 Q 201.201 547.076 154.875 590.75 L 154.375 592.25 L 151.375 593.25 L 150.875 527.75 L 211.875 488.75 Q 217.709 437.584 226.875 389.75 Q 232.463 374.338 231.875 352.75 L 229.375 352.25 C 224.607 350.783 216.225 348.438 212.375 353.25 L 212.375 353.25 L 212.375 308.25 Z  M 653.966 529.591 L 668.966 529.591 L 668.966 629.341 L 653.966 629.341 L 653.966 529.591 Z  M 679.466 529.591 L 694.466 529.591 L 694.466 629.341 L 679.466 629.341 L 679.466 529.591 Z  M 732.716 529.591 L 747.716 529.591 L 747.716 629.341 L 732.716 629.341 L 732.716 529.591 Z  M 707.216 529.641 L 722.216 529.641 L 722.216 629.391 L 707.216 629.391 L 707.216 529.641 Z  M 759.716 529.591 L 774.716 529.591 L 774.716 629.341 L 759.716 629.341 L 759.716 529.591 Z  M 813.716 529.591 L 828.716 529.591 L 828.716 629.341 L 813.716 629.341 L 813.716 529.591 Z  M 785.966 529.641 L 800.966 529.641 L 800.966 629.391 L 785.966 629.391 L 785.966 529.641 Z  M 263.466 352.674 L 426.466 352.341 L 426.466 352.341 L 426.216 488.216 L 425.841 488.341 L 242.799 488.341 L 263.591 352.591 L 242.591 487.966 M 456.208 352 L 507.208 352 L 507.875 352.667 L 528.875 489.667 L 456.208 489.333 L 528.542 489.333 L 455.875 489.667 L 455.875 352.333" fill-rule="evenodd" fill="rgb(75,199,20)"/></g></g><path d=" M 1266.747 764.98 L 1244.555 699.063 L 1128.979 699.063 L 1107.006 764.98 L 1036.913 764.98 L 1156.005 445.059 L 1217.089 445.059 L 1336.84 764.98 L 1266.747 764.98 L 1266.747 764.98 Z  M 1186.547 525.918 L 1146.776 645.669 L 1226.757 645.669 L 1186.547 525.918 L 1186.547 525.918 Z  M 1353.319 646.987 L 1353.319 644.351 L 1353.319 644.351 Q 1353.319 589.639 1379.357 556.24 L 1379.357 556.24 L 1379.357 556.24 Q 1405.395 522.842 1449.56 522.842 L 1449.56 522.842 L 1449.56 522.842 Q 1488.671 522.842 1510.424 549.648 L 1510.424 549.648 L 1513.061 527.236 L 1570.629 527.236 L 1570.629 757.07 L 1570.629 757.07 Q 1570.629 788.271 1556.457 811.343 L 1556.457 811.343 L 1556.457 811.343 Q 1542.284 834.414 1516.576 846.499 L 1516.576 846.499 L 1516.576 846.499 Q 1490.868 858.584 1456.371 858.584 L 1456.371 858.584 L 1456.371 858.584 Q 1430.224 858.584 1405.395 848.147 L 1405.395 848.147 L 1405.395 848.147 Q 1380.565 837.71 1367.821 821.23 L 1367.821 821.23 L 1395.946 782.559 L 1395.946 782.559 Q 1419.677 809.146 1453.515 809.146 L 1453.515 809.146 L 1453.515 809.146 Q 1478.783 809.146 1492.846 795.632 L 1492.846 795.632 L 1492.846 795.632 Q 1506.908 782.119 1506.908 757.29 L 1506.908 757.29 L 1506.908 744.546 L 1506.908 744.546 Q 1484.936 769.375 1449.12 769.375 L 1449.12 769.375 L 1449.12 769.375 Q 1406.273 769.375 1379.796 735.867 L 1379.796 735.867 L 1379.796 735.867 Q 1353.319 702.358 1353.319 646.987 L 1353.319 646.987 L 1353.319 646.987 Z  M 1416.82 648.965 L 1416.82 648.965 L 1416.82 648.965 Q 1416.82 681.265 1429.784 699.612 L 1429.784 699.612 L 1429.784 699.612 Q 1442.748 717.959 1465.38 717.959 L 1465.38 717.959 L 1465.38 717.959 Q 1494.384 717.959 1506.908 696.206 L 1506.908 696.206 L 1506.908 596.23 L 1506.908 596.23 Q 1494.164 574.478 1465.819 574.478 L 1465.819 574.478 L 1465.819 574.478 Q 1442.968 574.478 1429.894 593.154 L 1429.894 593.154 L 1429.894 593.154 Q 1416.82 611.831 1416.82 648.965 Z  M 1753.881 525.698 L 1753.002 586.782 L 1753.002 586.782 Q 1740.038 585.024 1730.15 585.024 L 1730.15 585.024 L 1730.15 585.024 Q 1694.115 585.024 1682.909 609.414 L 1682.909 609.414 L 1682.909 764.98 L 1619.408 764.98 L 1619.408 527.236 L 1679.394 527.236 L 1681.151 555.581 L 1681.151 555.581 Q 1700.268 522.842 1734.105 522.842 L 1734.105 522.842 L 1734.105 522.842 Q 1744.652 522.842 1753.881 525.698 L 1753.881 525.698 L 1753.881 525.698 Z  M 1850.561 527.236 L 1850.561 764.98 L 1786.84 764.98 L 1786.84 527.236 L 1850.561 527.236 L 1850.561 527.236 Z  M 1783.104 465.713 L 1783.104 465.713 L 1783.104 465.713 Q 1783.104 451.431 1792.663 442.202 L 1792.663 442.202 L 1792.663 442.202 Q 1802.221 432.974 1818.7 432.974 L 1818.7 432.974 L 1818.7 432.974 Q 1834.96 432.974 1844.628 442.202 L 1844.628 442.202 L 1844.628 442.202 Q 1854.296 451.431 1854.296 465.713 L 1854.296 465.713 L 1854.296 465.713 Q 1854.296 480.215 1844.518 489.443 L 1844.518 489.443 L 1844.518 489.443 Q 1834.74 498.672 1818.7 498.672 L 1818.7 498.672 L 1818.7 498.672 Q 1802.66 498.672 1792.882 489.443 L 1792.882 489.443 L 1792.882 489.443 Q 1783.104 480.215 1783.104 465.713 Z  M 1892.968 644.351 L 1892.968 644.351 L 1892.968 644.351 Q 1892.968 588.76 1917.907 555.801 L 1917.907 555.801 L 1917.907 555.801 Q 1942.846 522.842 1986.132 522.842 L 1986.132 522.842 L 1986.132 522.842 Q 2020.849 522.842 2043.48 548.77 L 2043.48 548.77 L 2043.48 427.48 L 2107.201 427.48 L 2107.201 764.98 L 2049.853 764.98 L 2046.776 739.712 L 2046.776 739.712 Q 2023.046 769.375 1985.692 769.375 L 1985.692 769.375 L 1985.692 769.375 Q 1943.725 769.375 1918.346 736.306 L 1918.346 736.306 L 1918.346 736.306 Q 1892.968 703.237 1892.968 644.351 Z  M 1956.469 648.965 L 1956.469 648.965 L 1956.469 648.965 Q 1956.469 682.363 1968.114 700.161 L 1968.114 700.161 L 1968.114 700.161 Q 1979.76 717.959 2001.952 717.959 L 2001.952 717.959 L 2001.952 717.959 Q 2031.396 717.959 2043.48 693.13 L 2043.48 693.13 L 2043.48 599.307 L 2043.48 599.307 Q 2031.615 574.478 2002.392 574.478 L 2002.392 574.478 L 2002.392 574.478 Q 1956.469 574.478 1956.469 648.965 Z " fill="rgb(75,199,20)"/></g></g></svg>