<?xml version="1.0" encoding="UTF-8" standalone="no"?><!-- Generator: Gravit.io --><svg xmlns="http://www.w3.org/2000/svg" xmlns:xlink="http://www.w3.org/1999/xlink" style="isolation:isolate" viewBox="0 0 1000 1000" width="1000pt" height="1000pt"><defs><clipPath id="_clipPath_SnLvfNEvce1yNM82VtKa6PhRuOAjq0Pp"><rect width="1000" height="1000"/></clipPath></defs><g clip-path="url(#_clipPath_SnLvfNEvce1yNM82VtKa6PhRuOAjq0Pp)"><g><g><g><circle vector-effect="non-scaling-stroke" cx="264.93749999999983" cy="759.1875" r="67.9374999999997" fill="rgb(232,190,40)"/><circle vector-effect="non-scaling-stroke" cx="807.2499999999995" cy="826.2500000000002" r="48" fill="rgb(232,190,40)"/><path d=" M 56 761.75 C 56 646.952 149.202 553.75 264 553.75 C 378.798 553.75 472 646.952 472 761.75 C 472 876.548 378.798 969.75 264 969.75 C 149.202 969.75 56 876.548 56 761.75 Z  M 150 762.25 C 150 698.78 201.53 647.25 265 647.25 C 328.47 647.25 380 698.78 380 762.25 C 380 825.72 328.47 877.25 265 877.25 C 201.53 877.25 150 825.72 150 762.25 Z " fill-rule="evenodd" fill="rgb(75,199,20)"/><path d=" M 664 829.75 C 664 752.482 726.732 689.75 804 689.75 C 881.268 689.75 944 752.482 944 829.75 C 944 907.018 881.268 969.75 804 969.75 C 726.732 969.75 664 907.018 664 829.75 Z  M 727.269 830.087 C 727.269 787.366 761.953 752.683 804.673 752.683 C 847.393 752.683 882.077 787.366 882.077 830.087 C 882.077 872.807 847.393 907.49 804.673 907.49 C 761.953 907.49 727.269 872.807 727.269 830.087 Z " fill-rule="evenodd" fill="rgb(75,199,20)"/></g><path d=" M 723.5 30.25 L 725 30.75 C 724.622 47.176 727.042 64.952 737.5 78.25 L 737.5 78.25 L 739 78.75 Q 742.208 98.542 755 108.75 Q 768.549 125.201 766 157.75 Q 760.425 183.675 744.5 199.25 L 743 199.75 L 728.5 215.25 L 726 216.75 L 725.5 218.25 L 721.5 220.25 L 721 217.75 C 726.218 206.097 728.868 193.422 730 180.75 L 730 180.75 L 729 177.75 C 733.093 174.68 730.563 168.707 730 164.75 C 728.636 155.154 728.016 146.086 723.5 137.25 L 723.5 137.25 L 722 137.75 Q 726.406 191.156 707.5 221.25 Q 702.75 222 702 218.75 L 699.5 215.25 L 695 211.75 L 694.5 210.25 L 690 206.75 C 673.58 192.032 666.23 169.996 664.561 148.501 C 661.941 114.739 673.145 78.452 697.5 54.25 L 697.5 54.25 L 699 53.75 L 701.5 49.25 L 705 47.75 C 701.05 44.729 707.056 42.158 709.5 41.25 L 709.5 41.25 L 711 41.75 L 715.5 36.25 L 723.5 30.25 Z " fill="rgb(232,190,40)"/><path d=" M 587.5 141.25 L 589.5 145.25 L 591 145.75 C 592.875 151.85 596.346 157.403 601.5 161.25 L 601.5 161.25 L 603 161.75 L 607.5 167.25 L 609 167.75 L 609.5 169.25 Q 643.966 187.284 671 212.75 Q 691.426 228.824 687 269.75 Q 683.631 293.881 673.5 311.25 Q 673.583 301.167 669 295.75 L 669 293.75 C 664.772 271.248 654.683 249.763 636.5 235.25 L 636.5 235.25 L 635 235.75 L 635.5 237.25 L 637 237.75 C 653.551 260.296 660.716 288.24 663 315.75 L 663 315.75 L 662.5 318.25 L 660.5 319.25 L 658.5 319.25 C 638.265 314.522 618.894 305.486 604 290.75 L 604 290.75 L 598.5 284.25 L 597 283.75 Q 570.945 255.805 571 201.75 Q 572.935 168.685 585 145.75 L 584.5 144.25 L 586 144.75 L 587.5 141.25 Z " fill="rgb(232,190,40)"/><path d=" M 834.5 184.25 C 843.734 183.082 853.672 182.847 862.5 186.25 L 862.5 186.25 L 864.5 186.25 L 873 187.75 L 872.5 190.25 L 871 190.75 L 869.5 193.25 L 865 196.75 L 856.5 209.25 L 855 209.75 L 848 224.75 Q 850.5 226.25 847 227.75 Q 839.7 263.95 822.5 290.25 L 821 290.75 L 816.5 297.25 L 807 303.75 L 806.5 305.25 C 786.349 317.192 761.122 317.596 738.5 315.25 L 738.5 315.25 L 730 312.75 L 735 309.75 L 735.5 308.25 L 737.5 308.25 Q 766.044 297.794 783 275.75 Q 790.258 268.508 794 257.75 L 792.5 257.25 L 785.5 266.25 C 783.533 263.408 781.763 266.8 781 268.75 L 781 268.75 L 778.5 272.25 L 775 273.75 L 773.5 276.25 C 759.267 291.38 739.673 299.651 719.5 303.25 L 719.5 303.25 L 719 300.75 C 718.756 267.506 727.085 231.646 756.5 212.25 L 756.5 212.25 L 759 210.75 L 759.5 209.25 C 780.478 192.064 807.949 185.638 834.5 184.25 L 834.5 184.25 Z " fill="rgb(232,190,40)"/><path d=" M 181.5 308.25 L 532 308.75 L 531.5 352.25 L 514.5 352.25 C 502.029 349.132 507.806 362.246 508.939 371.436 C 513.811 410.988 519.923 450.323 528.5 489.25 L 528.5 489.25 L 669 488.75 L 669 404.75 L 669 383.75 C 668.228 380.854 667.271 376.095 670.5 374.25 L 670.5 374.25 L 672.5 375.25 L 675.5 374.25 L 678.5 375.25 L 681.5 374.25 L 683.5 375.25 L 687 373.75 L 687 371.75 L 687.5 328.25 L 703.5 328.25 C 705.608 327.748 708.887 327.301 710 329.75 L 710 329.75 L 710 362.75 C 708.962 366.429 707.51 372.668 711.5 375.25 L 711.5 375.25 L 727 375.75 L 727.5 489.25 L 873 489.75 C 875.594 518.349 875.178 548.254 866 575.75 L 866 575.75 L 852 645.75 Q 850.863 664.112 845.5 678.25 Q 824.25 671 793.5 673.25 Q 728.643 682.893 695 723.75 L 694.5 725.25 L 693 725.75 C 683.065 737.713 674.916 751.098 668.5 765.25 L 668.5 765.25 L 530.5 765.25 L 496.5 765.25 C 492.554 766.378 485.829 767.993 483 763.75 L 483 763.75 L 484 761.75 L 483 759.75 Q 486.25 757.5 484 749.75 Q 477.404 662.346 431.5 614.25 L 429 612.75 L 421.5 603.25 L 420 602.75 L 417.5 599.25 L 416 598.75 L 414.5 596.25 L 408 591.75 L 406.5 589.25 Q 355.08 537.67 251.5 538.25 Q 170.326 547.076 124 590.75 L 123.5 592.25 L 120.5 593.25 L 120 527.75 L 181 488.75 Q 186.834 437.584 196 389.75 Q 201.588 374.338 201 352.75 L 198.5 352.25 C 193.732 350.783 185.35 348.438 181.5 353.25 L 181.5 353.25 L 181.5 308.25 Z  M 623.091 529.591 L 638.091 529.591 L 638.091 629.341 L 623.091 629.341 L 623.091 529.591 Z  M 648.591 529.591 L 663.591 529.591 L 663.591 629.341 L 648.591 629.341 L 648.591 529.591 Z  M 701.841 529.591 L 716.841 529.591 L 716.841 629.341 L 701.841 629.341 L 701.841 529.591 Z  M 676.341 529.641 L 691.341 529.641 L 691.341 629.391 L 676.341 629.391 L 676.341 529.641 Z  M 728.841 529.591 L 743.841 529.591 L 743.841 629.341 L 728.841 629.341 L 728.841 529.591 Z  M 782.841 529.591 L 797.841 529.591 L 797.841 629.341 L 782.841 629.341 L 782.841 529.591 Z  M 755.091 529.641 L 770.091 529.641 L 770.091 629.391 L 755.091 629.391 L 755.091 529.641 Z  M 232.591 352.674 L 395.591 352.341 L 395.591 352.341 L 395.341 488.216 L 394.966 488.341 L 211.924 488.341 L 232.716 352.591 L 211.716 487.966 M 425.333 352 L 476.333 352 L 477 352.667 L 498 489.667 L 425.333 489.333 L 497.667 489.333 L 425 489.667 L 425 352.333" fill-rule="evenodd" fill="rgb(75,199,20)"/></g></g></g></svg>